<?xml version="1.0" standalone="no"?>
<!DOCTYPE svg PUBLIC "-//W3C//DTD SVG 20010904//EN"
 "http://www.w3.org/TR/2001/REC-SVG-20010904/DTD/svg10.dtd">
<svg version="1.0" xmlns="http://www.w3.org/2000/svg"
 width="700.000000pt" height="700.000000pt" viewBox="0 0 700.000000 700.000000"
 preserveAspectRatio="xMidYMid meet">
<metadata>
Created by potrace 1.14, written by Peter Selinger 2001-2017
</metadata>
<g transform="translate(0.000000,700.000000) scale(0.100000,-0.100000)"
fill="#000000" stroke="none">
<path d="M1293 6680 c-124 -32 -217 -85 -308 -175 -91 -90 -136 -165 -165
-277 -18 -70 -19 -131 -19 -1698 0 -1573 1 -1627 19 -1699 51 -195 210 -361
413 -430 90 -31 109 -33 372 -37 138 -2 258 -3 268 -4 16 0 17 -29 17 -471 0
-458 1 -472 21 -508 11 -20 32 -44 46 -55 32 -24 100 -32 146 -17 19 7 154
102 299 212 144 109 330 250 412 312 81 61 271 206 422 320 l275 209 1077 2
1077 2 70 23 c213 70 362 208 433 401 l27 75 3 1632 c2 1420 0 1642 -13 1705
-43 210 -206 387 -426 464 l-84 29 -2155 2 c-2069 1 -2158 1 -2227 -17z m4357
-299 c98 -27 181 -99 226 -195 l24 -51 0 -1570 c0 -1233 -3 -1583 -13 -1631
-24 -114 -98 -202 -209 -247 l-53 -22 -1093 -1 c-601 -1 -1108 -5 -1126 -8
-29 -6 -73 -34 -146 -93 -8 -6 -62 -47 -120 -90 -58 -43 -110 -82 -116 -88 -6
-5 -24 -20 -40 -32 -130 -96 -705 -533 -737 -560 -16 -13 -32 -23 -36 -23 -4
0 -7 170 -6 377 0 209 -3 391 -8 408 -13 41 -53 82 -94 96 -21 7 -160 11 -380
12 l-348 2 -61 28 c-74 34 -145 103 -176 172 l-23 50 -2 1605 c-2 1570 -1
1606 18 1656 44 116 152 197 284 213 28 3 982 6 2120 5 1609 -1 2080 -4 2115
-13z"/>
<path d="M2435 5472 c-61 -6 -182 -35 -237 -57 -151 -61 -266 -187 -311 -342
-22 -72 -20 -227 3 -302 55 -184 184 -272 495 -340 239 -53 284 -64 360 -88
44 -14 100 -36 124 -50 117 -68 100 -247 -31 -314 -60 -31 -156 -49 -258 -49
-220 0 -332 71 -373 237 l-12 48 -174 1 -173 1 6 -61 c8 -81 11 -91 36 -158
37 -100 118 -193 225 -260 50 -31 158 -74 205 -82 19 -3 58 -10 85 -15 75 -15
367 -6 445 13 114 29 225 90 299 164 36 37 78 90 93 117 102 192 61 450 -94
589 -87 79 -158 106 -496 186 -51 12 -103 23 -116 26 -72 13 -236 69 -265 91
-111 85 -62 256 88 314 40 16 84 23 156 25 205 7 321 -59 362 -206 l15 -55
161 1 c89 1 168 2 176 3 10 1 12 14 7 60 -23 213 -163 380 -383 456 -37 13
-81 26 -98 29 -16 3 -41 8 -55 11 -28 7 -219 12 -265 7z"/>
<path d="M4195 5452 c-219 -26 -404 -131 -541 -307 -118 -151 -182 -352 -188
-594 -6 -199 26 -359 101 -510 39 -80 62 -110 142 -192 167 -168 326 -233 569
-231 202 2 335 58 480 202 29 29 54 51 56 49 2 -2 9 -40 15 -84 21 -134 5
-120 141 -121 l120 0 0 473 c0 444 -1 473 -17 473 -111 4 -707 -1 -711 -5 -3
-3 -6 -68 -6 -145 l-1 -140 45 -1 c25 0 118 0 207 -1 l161 0 -14 -51 c-59
-207 -217 -330 -424 -331 -106 0 -187 22 -272 77 -133 85 -195 196 -214 384
-29 275 29 502 162 638 199 202 565 160 683 -77 17 -34 31 -67 31 -75 0 -10
36 -13 180 -13 l180 0 0 23 c-1 82 -70 232 -148 318 -147 162 -332 239 -582
243 -69 1 -138 0 -155 -2z"/>
<path d="M2450 775 c0 -57 4 -95 10 -95 6 0 10 22 10 49 0 51 18 78 45 67 11
-4 15 -21 15 -61 0 -32 4 -55 10 -55 7 0 10 23 8 61 -3 71 -22 94 -58 71 -19
-11 -20 -10 -20 23 0 19 -4 35 -10 35 -6 0 -10 -38 -10 -95z"/>
<path d="M3450 855 c0 -8 5 -15 10 -15 6 0 10 7 10 15 0 8 -4 15 -10 15 -5 0
-10 -7 -10 -15z"/>
<path d="M3536 863 c-12 -13 -5 -18 26 -18 17 0 33 5 35 10 3 11 -51 18 -61 8z"/>
<path d="M1890 761 c0 -91 -2 -100 -22 -114 -22 -15 -22 -16 -2 -16 11 -1 25
4 32 11 15 15 17 218 2 218 -6 0 -10 -40 -10 -99z"/>
<path d="M2360 841 c0 -10 -6 -22 -12 -25 -10 -5 -10 -7 0 -12 7 -3 12 -26 12
-59 0 -39 4 -54 16 -59 24 -9 44 -7 44 4 0 6 -9 10 -20 10 -17 0 -20 7 -20 50
0 43 3 50 20 50 11 0 20 5 20 10 0 6 -9 10 -20 10 -11 0 -20 6 -20 14 0 8 -4
18 -10 21 -5 3 -10 -3 -10 -14z"/>
<path d="M2950 842 c-26 -21 -36 -87 -18 -122 8 -13 25 -29 39 -34 33 -11 79
0 79 20 0 11 -4 12 -19 4 -47 -24 -81 -4 -87 52 -7 60 37 94 87 68 15 -8 19
-7 19 4 0 30 -66 35 -100 8z"/>
<path d="M3360 841 c0 -10 -6 -22 -12 -25 -10 -5 -10 -7 0 -12 7 -3 12 -26 12
-59 0 -39 4 -54 16 -59 24 -9 44 -7 44 4 0 6 -9 10 -20 10 -17 0 -20 7 -20 50
0 43 3 50 20 50 11 0 20 5 20 10 0 6 -9 10 -20 10 -11 0 -20 6 -20 14 0 8 -4
18 -10 21 -5 3 -10 -3 -10 -14z"/>
<path d="M542 832 c-30 -23 -40 -83 -18 -116 29 -45 123 -44 141 1 11 30 -8
35 -32 8 -20 -21 -31 -25 -52 -20 -32 8 -41 21 -41 62 0 24 7 37 25 49 23 15
65 12 65 -6 0 -12 29 -20 35 -10 3 5 -3 18 -15 30 -25 25 -77 26 -108 2z"/>
<path d="M1093 843 c-7 -3 -13 -11 -13 -18 0 -7 -6 -16 -12 -19 -10 -5 -10 -7
0 -12 6 -3 12 -23 12 -44 0 -21 3 -45 6 -54 7 -17 54 -22 54 -6 0 6 -7 10 -15
10 -11 0 -15 12 -15 45 0 33 4 45 15 45 8 0 15 5 15 10 0 6 -6 10 -14 10 -8 0
-16 8 -18 18 -2 11 -9 17 -15 15z"/>
<path d="M1400 818 c0 -25 -3 -29 -12 -20 -18 18 -53 15 -71 -6 -23 -25 -21
-68 3 -92 22 -22 66 -27 73 -7 4 10 6 10 6 0 1 -7 8 -13 16 -13 12 0 15 16 15
85 0 69 -3 85 -15 85 -10 0 -15 -10 -15 -32z m-10 -47 c15 -30 12 -49 -11 -61
-25 -14 -49 2 -49 34 0 43 41 61 60 27z"/>
<path d="M1530 767 l0 -84 49 -1 c55 -1 68 8 77 55 8 43 -26 78 -67 69 -26 -5
-29 -3 -29 19 0 16 -6 25 -15 25 -12 0 -15 -16 -15 -83z m88 11 c30 -30 -2
-93 -36 -71 -21 13 -27 50 -12 69 15 17 32 18 48 2z"/>
<path d="M1956 798 c-47 -66 25 -158 77 -100 10 10 17 34 17 54 0 61 -62 92
-94 46z m62 -10 c17 -17 15 -63 -4 -79 -22 -18 -48 0 -51 37 -3 45 28 69 55
42z"/>
<path d="M2080 750 c0 -40 4 -70 10 -70 6 0 10 19 10 43 0 50 19 83 44 74 12
-5 16 -20 16 -62 0 -32 4 -55 10 -55 7 0 10 23 8 61 -3 71 -22 94 -58 71 -12
-7 -20 -8 -20 -2 0 5 -4 10 -10 10 -6 0 -10 -30 -10 -70z"/>
<path d="M2227 813 c-14 -13 -6 -18 25 -18 17 0 33 -6 35 -12 3 -8 -4 -13 -19
-13 -35 0 -60 -22 -56 -50 4 -33 32 -48 58 -32 12 7 20 8 20 2 0 -5 5 -10 10
-10 17 0 12 107 -6 124 -16 16 -55 22 -67 9z m61 -79 c-5 -25 -35 -41 -49 -27
-18 18 -3 43 26 43 19 0 26 -5 23 -16z"/>
<path d="M2597 813 c-14 -13 -6 -18 25 -18 17 0 33 -6 35 -12 3 -9 -6 -13 -25
-13 -35 0 -55 -20 -50 -51 4 -31 33 -47 57 -32 15 10 21 10 24 0 7 -19 15 -5
17 28 4 54 0 73 -16 89 -16 16 -55 22 -67 9z m61 -79 c-5 -25 -35 -41 -49 -27
-18 18 -3 43 26 43 19 0 26 -5 23 -16z"/>
<path d="M2720 750 c0 -40 4 -70 10 -70 6 0 10 22 10 49 0 51 18 78 45 67 11
-4 15 -21 15 -61 0 -32 4 -55 10 -55 7 0 10 23 8 61 -3 71 -22 94 -58 71 -12
-7 -20 -8 -20 -2 0 5 -4 10 -10 10 -6 0 -10 -30 -10 -70z"/>
<path d="M3086 798 c-32 -46 -8 -118 39 -118 30 0 55 35 55 76 0 58 -64 86
-94 42z m62 -10 c26 -26 8 -88 -25 -88 -23 0 -38 46 -25 75 13 27 31 32 50 13z"/>
<path d="M3210 766 c0 -71 34 -108 68 -74 9 9 12 9 12 0 0 -7 5 -12 10 -12 6
0 10 30 10 70 0 81 -17 95 -22 19 -2 -37 -8 -55 -21 -63 -24 -15 -37 7 -37 67
0 26 -4 47 -10 47 -5 0 -10 -24 -10 -54z"/>
<path d="M3450 750 c0 -40 4 -70 10 -70 6 0 10 30 10 70 0 40 -4 70 -10 70 -6
0 -10 -30 -10 -70z"/>
<path d="M3510 750 c0 -40 4 -70 10 -70 6 0 10 22 10 49 0 51 18 78 45 67 11
-4 15 -21 15 -61 0 -32 4 -55 10 -55 7 0 10 23 8 61 -3 71 -22 94 -58 71 -12
-7 -20 -8 -20 -2 0 5 -4 10 -10 10 -6 0 -10 -30 -10 -70z"/>
<path d="M3656 798 c-22 -30 -20 -81 2 -101 41 -38 92 -5 92 59 0 58 -64 86
-94 42z m63 -12 c17 -20 10 -67 -12 -80 -15 -9 -21 -7 -33 8 -35 48 8 117 45
72z"/>
<path d="M690 744 c0 -50 3 -64 15 -64 11 0 15 12 15 44 0 37 5 48 27 64 l26
19 -41 0 -42 0 0 -63z"/>
<path d="M790 790 c-11 -11 -20 -31 -20 -45 0 -53 69 -85 105 -49 22 22 11 30
-20 14 -20 -11 -27 -11 -40 0 -26 22 -16 31 30 27 41 -3 45 -2 45 18 0 49 -64
71 -100 35z m68 -17 c2 -9 -7 -13 -28 -13 -28 0 -31 2 -20 15 15 18 41 16 48
-2z"/>
<path d="M929 790 c-23 -19 -23 -19 -3 -20 11 0 25 5 31 11 13 13 43 5 43 -10
0 -5 -18 -12 -40 -16 -27 -4 -41 -13 -45 -26 -11 -33 11 -48 69 -46 l53 1 -5
51 c-2 27 -9 56 -14 63 -15 18 -63 15 -89 -8z m71 -64 c0 -18 -39 -31 -52 -18
-15 15 0 32 28 32 14 0 24 -6 24 -14z"/>
<path d="M1180 790 c-11 -11 -20 -31 -20 -45 0 -52 69 -85 104 -49 25 24 9 35
-24 16 -27 -15 -32 -15 -40 -2 -13 21 -12 31 3 29 6 -1 29 -1 49 0 31 1 36 4
31 19 -19 52 -67 68 -103 32z m68 -18 c2 -8 -8 -12 -27 -12 -29 0 -39 9 -25
23 10 10 47 2 52 -11z"/>
<path d="M1675 793 c4 -10 15 -42 25 -70 19 -52 19 -53 -1 -63 -24 -14 -25
-30 0 -30 25 0 35 14 65 94 30 79 31 86 12 86 -12 0 -23 -23 -32 -68 -4 -23
-13 -26 -20 -6 -18 57 -28 74 -41 74 -10 0 -13 -6 -8 -17z"/>
<path d="M543 573 c-7 -2 -13 -11 -13 -18 0 -7 -6 -16 -12 -19 -10 -5 -10 -7
0 -12 7 -3 12 -26 12 -60 0 -41 4 -54 15 -54 11 0 15 13 15 54 0 34 5 57 13
60 10 5 10 7 0 12 -18 8 -16 24 3 24 8 0 12 5 9 10 -7 11 -22 12 -42 3z"/>
<path d="M1120 495 c0 -69 3 -85 15 -85 12 0 15 14 15 62 l0 61 40 -61 c56
-88 70 -83 70 23 0 69 -3 85 -15 85 -12 0 -15 -14 -15 -62 l0 -61 -40 61 c-56
88 -70 83 -70 -23z"/>
<path d="M1800 495 c0 -69 3 -85 15 -85 10 0 15 11 15 35 0 32 2 35 28 33 43
-2 71 11 78 38 10 41 -19 64 -83 64 l-53 0 0 -85z m107 52 c2 -3 2 -15 -2 -26
-5 -16 -15 -21 -41 -21 -31 0 -34 2 -34 31 0 29 1 30 36 26 19 -3 38 -7 41
-10z"/>
<path d="M2200 570 c0 -5 7 -10 15 -10 8 0 15 5 15 10 0 6 -7 10 -15 10 -8 0
-15 -4 -15 -10z"/>
<path d="M2553 563 c-4 -10 -11 -21 -17 -25 -8 -6 -7 -10 1 -16 6 -4 13 -30
15 -57 3 -46 5 -50 31 -53 15 -2 27 1 27 7 0 6 -7 11 -15 11 -11 0 -15 12 -15
45 0 33 4 45 15 45 8 0 15 5 15 10 0 6 -7 10 -15 10 -8 0 -15 6 -15 14 0 23
-19 29 -27 9z"/>
<path d="M600 474 c0 -50 3 -64 15 -64 11 0 15 12 15 44 0 37 5 48 27 64 l26
19 -41 0 -42 0 0 -63z"/>
<path d="M702 524 c-45 -31 -14 -114 43 -114 14 0 34 9 45 20 58 58 -20 142
-88 94z m59 -14 c23 -13 25 -53 3 -71 -33 -27 -72 33 -44 67 15 17 16 17 41 4z"/>
<path d="M830 474 c0 -50 3 -64 15 -64 11 0 15 12 15 49 0 35 4 51 16 55 26
10 34 -3 34 -55 0 -36 4 -49 14 -49 11 0 16 15 18 53 3 44 6 52 23 52 17 0 20
-8 23 -52 2 -38 7 -53 18 -53 18 0 20 100 2 118 -15 15 -55 16 -63 2 -4 -7
-11 -8 -18 -2 -7 5 -31 10 -54 9 l-43 0 0 -63z"/>
<path d="M1310 520 c-11 -11 -20 -31 -20 -45 0 -14 9 -34 20 -45 11 -11 31
-20 45 -20 14 0 34 9 45 20 11 11 20 31 20 45 0 14 -9 34 -20 45 -11 11 -31
20 -45 20 -14 0 -34 -9 -45 -20z m61 -10 c23 -13 25 -53 3 -71 -33 -27 -72 33
-44 67 15 17 16 17 41 4z"/>
<path d="M1440 485 c0 -62 11 -73 73 -73 l37 0 0 64 c0 50 -3 64 -15 64 -10 0
-14 -12 -13 -46 0 -29 -4 -49 -13 -55 -25 -16 -34 -3 -37 49 -2 37 -7 52 -18
52 -10 0 -14 -14 -14 -55z"/>
<path d="M1580 474 c0 -50 3 -64 15 -64 11 0 15 12 15 49 0 35 4 51 16 55 26
10 34 -3 34 -55 0 -37 4 -49 15 -49 11 0 15 13 15 54 0 63 -10 74 -67 73 l-43
0 0 -63z"/>
<path d="M1960 475 c0 -49 3 -65 14 -65 10 0 15 16 18 53 5 61 1 77 -18 77
-11 0 -14 -16 -14 -65z"/>
<path d="M2000 531 c0 -11 26 -22 34 -14 3 3 3 10 0 14 -7 12 -34 11 -34 0z"/>
<path d="M2060 520 c-11 -11 -20 -31 -20 -45 0 -14 9 -34 20 -45 11 -11 31
-20 45 -20 14 0 34 9 45 20 11 11 20 31 20 45 0 14 -9 34 -20 45 -11 11 -31
20 -45 20 -14 0 -34 -9 -45 -20z m61 -10 c23 -13 25 -53 3 -71 -33 -27 -72 33
-44 67 15 17 16 17 41 4z"/>
<path d="M2200 467 c0 -43 -5 -78 -12 -85 -16 -16 -1 -29 20 -16 24 16 31 174
7 174 -12 0 -15 -14 -15 -73z"/>
<path d="M2270 520 c-11 -11 -20 -31 -20 -45 0 -52 69 -85 104 -49 26 26 18
36 -13 18 -25 -15 -32 -15 -45 -5 -27 22 -18 31 29 31 38 0 45 3 45 19 0 48
-64 67 -100 31z m54 -6 c26 -10 18 -24 -14 -24 -30 0 -41 14 -17 23 6 3 13 6
14 6 1 1 8 -2 17 -5z"/>
<path d="M2410 520 c-11 -11 -20 -31 -20 -45 0 -54 69 -85 103 -47 21 23 21
32 2 32 -8 0 -15 -4 -15 -9 0 -15 -32 -22 -46 -10 -21 17 -17 57 7 69 16 9 24
8 39 -5 14 -12 20 -13 26 -4 9 15 -22 39 -53 39 -13 0 -32 -9 -43 -20z"/>
</g>
</svg>
